<svg xmlns="http://www.w3.org/2000/svg" style="display:none"><symbol id="icon-cross" viewBox="0 0 22.88 22.88"><path d="M.324 1.909a1.14 1.14 0 0 1 0-1.587 1.14 1.14 0 0 1 1.587 0l9.523 9.539L20.973.322a1.12 1.12 0 0 1 1.571 0 1.112 1.112 0 0 1 0 1.587l-9.523 9.524 9.523 9.539a1.112 1.112 0 0 1 0 1.587 1.12 1.12 0 0 1-1.571 0l-9.539-9.539-9.523 9.539a1.14 1.14 0 0 1-1.587 0c-.429-.444-.429-1.159 0-1.587l9.523-9.539L.324 1.909z"/></symbol><symbol id="icon-eye" viewBox="0 0 96 96"><circle cx="48" cy="48" r="46" fill="none" stroke="#fff" stroke-width="2" stroke-miterlimit="10"/><path d="M78.1 49c.3-.6.3-1.3 0-1.9C72.3 36.3 60.8 29 47.7 29s-24.6 7.3-30.5 18.1c-.3.6-.3 1.3 0 1.9 5.9 10.8 17.3 18.1 30.5 18.1S72.3 59.8 78.1 49zM47.7 62.7c-8.1 0-14.6-6.6-14.6-14.6s6.6-14.6 14.6-14.6S62.3 40 62.3 48.1s-6.5 14.6-14.6 14.6z"/><path d="M47.7 40.6c-.6 0-1.2.1-1.8.2.6.7.9 1.6.9 2.5 0 2.1-1.7 3.9-3.9 3.9-1 0-1.8-.4-2.5-.9-.1.6-.2 1.2-.2 1.8 0 4.1 3.3 7.5 7.5 7.5s7.5-3.3 7.5-7.5-3.4-7.5-7.5-7.5z"/></symbol><symbol id="icon-left-arrow" viewBox="0 0 31.494 31.494"><path d="M10.273 5.009a1.112 1.112 0 0 1 1.587 0 1.12 1.12 0 0 1 0 1.571l-8.047 8.047h26.554c.619 0 1.127.492 1.127 1.111s-.508 1.127-1.127 1.127H3.813l8.047 8.032c.429.444.429 1.159 0 1.587a1.112 1.112 0 0 1-1.587 0L.321 16.532a1.12 1.12 0 0 1 0-1.571l9.952-9.952z"/></symbol><symbol id="icon-plane" viewBox="0 0 491.022 491.022"><path d="M490.916 13.991c-.213-1.173-.64-2.347-1.28-3.307-.107-.213-.213-.533-.32-.747-.107-.213-.32-.32-.533-.533a9.895 9.895 0 0 0-1.493-1.493l-1.28-.96c-.213-.107-.32-.32-.533-.427-.32-.107-.747-.32-1.173-.427-.533-.213-1.067-.427-1.6-.533-.64-.107-1.28-.213-1.92-.213h-1.6c-.747.107-1.493.32-2.133.533-.32.107-.747.107-1.067.213L6.436 209.085c-5.44 2.347-7.893 8.64-5.547 14.08 1.067 2.347 2.88 4.373 5.227 5.44l175.36 82.453v163.947c0 5.867 4.8 10.667 10.667 10.667 3.733 0 7.147-1.92 9.067-5.12l74.133-120.533 114.56 60.373c5.227 2.773 11.627.747 14.4-4.48.427-.853.747-1.813.96-2.667L490.81 18.258v-.64c.107-.64.107-1.173.213-1.707-.001-.64-.001-1.28-.107-1.92zM190.009 291.324L36.836 219.218 433.209 48.124l-243.2 243.2zm12.8 145.814V321.831l53.653 28.267-53.653 87.04zm184.64-42.24l-100.8-53.013-18.133-11.2-.747 1.28-57.707-30.4L462.116 49.298l-74.667 345.6z"/></symbol><symbol id="icon-right-arrow" viewBox="0 0 31.49 31.49"><path d="M21.205 5.007a1.112 1.112 0 0 0-1.587 0 1.12 1.12 0 0 0 0 1.571l8.047 8.047H1.111A1.106 1.106 0 0 0 0 15.737c0 .619.492 1.127 1.111 1.127h26.554l-8.047 8.032c-.429.444-.429 1.159 0 1.587a1.112 1.112 0 0 0 1.587 0l9.952-9.952a1.093 1.093 0 0 0 0-1.571l-9.952-9.953z"/></symbol><symbol id="icon-slider-next" viewBox="0 0 20 34"><path d="M19 18.7L4.4 33.3c-.9.9-2.4.9-3.4 0-.9-.9-.9-2.4 0-3.4L14 17 1 4.1C.1 3.1.1 1.6 1 .7c.9-.9 2.4-.9 3.4 0L19 15.3c.5.5.7 1.1.7 1.7 0 .6-.2 1.2-.7 1.7z"/></symbol><symbol id="icon-slider-prev" viewBox="0 0 20 34"><path d="M.3 17c0-.6.2-1.2.7-1.7L15.6.7c.9-.9 2.4-.9 3.4 0 .9.9.9 2.4 0 3.4L6 17l13 12.9c.9.9.9 2.4 0 3.4-.9.9-2.4.9-3.4 0L1 18.7C.5 18.2.3 17.6.3 17z"/></symbol></svg>