<?xml version="1.0" encoding="utf-8"?>
<!-- Generator: Adobe Illustrator 21.1.0, SVG Export Plug-In . SVG Version: 6.00 Build 0)  -->
<svg version="1.1" id="Слой_1" xmlns="http://www.w3.org/2000/svg" xmlns:xlink="http://www.w3.org/1999/xlink" x="0px" y="0px"
	 viewBox="0 0 100 100" style="enable-background:new 0 0 100 100;" xml:space="preserve">
<style type="text/css">
	.st0{fill:#264DE4;}
	.st1{fill:#2965F1;}
	.st2{fill:#EBEBEB;}
	.st3{fill:#FFFFFF;}
</style>
<path class="st0" d="M49.5,100l-28.9-8l-6.4-72.3H85L78.5,92L49.5,100L49.5,100z"/>
<path class="st1" d="M73,87.4l5.5-61.8h-29v68.3L73,87.4L73,87.4z"/>
<path class="st2" d="M28.9,52.4l0.8,8.9h19.8v-8.9H28.9z M27.3,34.4l0.8,8.9h21.4v-8.9H27.3L27.3,34.4z M49.6,75.4L49.6,75.4
	l-9.9-2.7L39,65.7h-8.9l1.2,13.9l18.2,5l0,0V75.4z"/>
<path d="M30.8,0h10.7v4.5h-6.2V9h6.3v4.5H30.8V0z M43.7,0h10.7v3.9h-6.2v0.8h6.2v9H43.7V9.6H50V8.8h-6.3L43.7,0L43.7,0z M56.6,0
	h10.7v3.9h-6.2v0.8h6.2v9H56.6V9.6h6.2V8.8h-6.2L56.6,0L56.6,0z"/>
<path class="st3" d="M70.2,52.4l1.6-18H49.5v8.9H62l-0.8,9.1H49.5v8.9h10.9l-1,11.5l-9.9,2.7v9.2l18.2-5l0.1-1.5l2.1-23.3L70.2,52.4
	L70.2,52.4z"/>
</svg>
