<?xml version="1.0" encoding="utf-8"?>
<!-- Generator: Adobe Illustrator 21.1.0, SVG Export Plug-In . SVG Version: 6.00 Build 0)  -->
<svg version="1.1" id="Слой_1" xmlns="http://www.w3.org/2000/svg" xmlns:xlink="http://www.w3.org/1999/xlink" x="0px" y="0px"
	 viewBox="0 0 100 100" style="enable-background:new 0 0 100 100;" xml:space="preserve">
<style type="text/css">
	.st0{fill:#CF4547;}
	.st1{fill:#FFFFFF;stroke:#FFFFFF;stroke-width:0.2622;stroke-miterlimit:10;}
</style>
<path class="st0" d="M0,0h100v100H0V0z"/>
<path class="st1" d="M34.6,50.7c0,0.1-0.1,0.3-0.3,0.6c-0.1,0.4-0.3,0.8-0.4,1.4c-0.2,0.5-0.4,1.2-0.6,1.8c-0.2,0.7-0.4,1.4-0.6,2.1
	c-0.2,0.7-0.4,1.4-0.6,2.1c-0.2,0.7-0.4,1.3-0.5,1.8c-0.2,0.5-0.3,1-0.4,1.4c-0.1,0.4-0.2,0.6-0.2,0.7c-0.1,0.2-0.1,0.5-0.3,0.7
	c-0.1,0.3-0.3,0.5-0.4,0.8c-0.2,0.2-0.4,0.4-0.6,0.6c-0.2,0.2-0.4,0.2-0.6,0.2c-0.4,0-0.6-0.1-0.8-0.4c-0.2-0.2-0.3-0.7-0.3-1.3
	v-0.3c0-0.1,0-0.2,0-0.3c0-0.2,0.1-0.6,0.3-1.2c0.2-0.6,0.4-1.3,0.6-2s0.5-1.5,0.7-2.4c0.3-0.8,0.5-1.5,0.7-2.2
	c-0.6,0.7-1.3,1.4-2,2c-0.7,0.7-1.4,1.3-2.2,1.8c-0.7,0.5-1.5,1-2.3,1.3c-0.8,0.3-1.5,0.5-2.2,0.5c-0.8,0-1.5-0.2-2.1-0.5
	c-0.6-0.4-1.1-0.8-1.4-1.4c-0.4-0.6-0.7-1.2-0.8-1.9c-0.2-0.7-0.3-1.4-0.3-2.2v-0.3c0-0.1,0-0.2,0-0.2c0.1-1.3,0.3-2.7,0.6-4
	c0.3-1.4,0.7-2.7,1.2-4.1c0.5-1.4,1.1-2.7,1.7-4s1.4-2.5,2.1-3.7c0.8-1.2,1.6-2.2,2.4-3.2c0.9-1,1.7-1.8,2.7-2.5
	c0.9-0.7,1.8-1.2,2.8-1.6c0.9-0.4,1.8-0.6,2.8-0.6c1,0,2.1,0.3,3,0.9c1,0.6,1.9,1.5,2.7,2.8c0.2,0.3,0.3,0.6,0.4,0.9
	c0.1,0.3,0.1,0.6,0.1,0.8c0,0.6-0.1,1.1-0.4,1.5s-0.6,0.5-1,0.5c-0.4,0-0.7-0.2-1-0.6c-0.3-0.4-0.7-0.9-1.1-1.7
	c-0.4-0.7-0.8-1.1-1.2-1.4c-0.4-0.3-0.9-0.4-1.4-0.4c-0.8,0-1.7,0.3-2.6,1c-0.9,0.7-1.8,1.6-2.7,2.6c-0.9,1.1-1.8,2.4-2.6,3.8
	c-0.8,1.4-1.6,2.9-2.2,4.3c-0.6,1.5-1.1,2.9-1.5,4.4s-0.6,2.7-0.6,3.9c0,0.4,0,0.8,0.1,1.2c0.1,0.4,0.1,0.8,0.3,1.1
	c0.1,0.3,0.3,0.6,0.6,0.8c0.2,0.2,0.6,0.3,0.9,0.3c0.4,0,0.9-0.1,1.4-0.4c0.5-0.3,1.1-0.7,1.7-1.1c0.6-0.5,1.2-1,1.8-1.6
	c0.6-0.6,1.1-1.2,1.6-1.8c0.5-0.6,1-1.2,1.3-1.7c0.4-0.6,0.7-1,0.9-1.4l1.6-4.8c0.2-0.5,0.5-0.9,0.8-1.1c0.3-0.2,0.6-0.3,1-0.3
	c0.2,0,0.3,0,0.5,0.1c0.2,0.1,0.3,0.1,0.4,0.3c0.1,0.1,0.2,0.3,0.3,0.5s0.1,0.4,0.1,0.6c0,0.7-0.1,1.3-0.2,1.8
	c-0.1,0.6-0.3,1.1-0.4,1.7c-0.2,0.5-0.4,1.1-0.6,1.6C35,49.5,34.8,50.1,34.6,50.7L34.6,50.7z M56.4,54.7c-0.5,0.7-1.1,1.3-1.8,2
	c-0.7,0.6-1.4,1.2-2.1,1.7c-0.7,0.5-1.4,0.9-2.1,1.2c-0.7,0.3-1.3,0.5-1.9,0.5c-0.6,0-1-0.2-1.3-0.6c-0.3-0.4-0.5-1-0.5-1.9
	c0-0.6,0.1-1.4,0.3-2.2c-0.3,0.5-0.7,1.1-1.1,1.6c-0.4,0.5-1,1-1.5,1.5s-1.2,0.8-1.9,1.1c-0.7,0.3-1.5,0.4-2.3,0.4
	c-0.4,0-0.7,0-1.1-0.1c-0.4-0.1-0.7-0.3-0.9-0.5c-0.3-0.2-0.5-0.5-0.6-0.9c-0.2-0.4-0.2-0.9-0.2-1.5c0,0,0-0.2,0.1-0.6
	c0-0.4,0.2-1,0.4-1.9c0.2-0.9,0.6-2,1.1-3.4c0.5-1.4,1.2-3,2.2-5c0.2-0.5,0.5-0.9,0.8-1.1c0.3-0.2,0.7-0.3,1-0.3
	c0.2,0,0.3,0,0.5,0.1c0.2,0,0.3,0.1,0.5,0.2c0.1,0.1,0.3,0.2,0.4,0.4c0.1,0.2,0.1,0.3,0.1,0.5c0,0.1,0,0.3-0.1,0.4
	c-0.1,0.2-0.2,0.5-0.4,0.9c-0.2,0.4-0.4,0.8-0.7,1.3c-0.3,0.5-0.5,1-0.8,1.6c-0.3,0.6-0.5,1.1-0.8,1.7c-0.2,0.6-0.4,1.2-0.6,1.8
	c-0.2,0.6-0.3,1.2-0.3,1.8c0,0.2,0.1,0.5,0.2,0.7c0.1,0.2,0.3,0.3,0.6,0.3c0.7,0,1.5-0.2,2.1-0.7c0.7-0.5,1.3-1.1,1.9-1.8
	c0.6-0.7,1.1-1.5,1.6-2.4c0.5-0.8,0.9-1.6,1.2-2.3c0.2-0.5,0.4-1,0.6-1.5c0.2-0.5,0.3-1,0.5-1.5s0.4-0.8,0.7-1.1
	c0.3-0.3,0.6-0.5,0.9-0.5c0.4,0,0.7,0.2,1,0.5c0.2,0.3,0.4,0.7,0.4,1.1c0,0.2-0.1,0.6-0.2,1s-0.4,0.9-0.6,1.5
	c-0.2,0.6-0.5,1.1-0.8,1.8c-0.3,0.6-0.5,1.3-0.8,1.9c-0.2,0.6-0.4,1.3-0.6,1.9c-0.2,0.6-0.2,1.2-0.2,1.7c0,0.5,0.3,0.7,0.8,0.7
	c0.4,0,0.8-0.1,1.3-0.4s1.1-0.6,1.7-1c0.6-0.4,1.2-1,1.7-1.6c0.6-0.6,1.1-1.2,1.5-1.9L56.4,54.7L56.4,54.7z"/>
<path class="st1" d="M56.9,53.7c-0.1,0.3-0.3,0.7-0.4,1.1c-0.1,0.4-0.2,0.8-0.2,1.1c0,0.2,0,0.4,0.1,0.5c0.1,0.1,0.2,0.2,0.4,0.2
	c0.2,0,0.5-0.1,0.9-0.3c0.4-0.2,0.8-0.4,1.2-0.7c0.4-0.3,0.9-0.6,1.3-1c0.5-0.4,0.9-0.7,1.4-1.1c0.4-0.4,0.9-0.8,1.3-1.2
	c0.4-0.4,0.8-0.7,1.1-1.1c0.1-0.1,0.2-0.2,0.3-0.2c0.1,0,0.2-0.1,0.3-0.1c0.2,0,0.4,0.1,0.6,0.3c0.1,0.2,0.2,0.4,0.2,0.8
	c0,0.3-0.1,0.6-0.2,1c-0.2,0.4-0.4,0.7-0.8,1c-0.7,0.8-1.5,1.6-2.2,2.3c-0.7,0.7-1.5,1.4-2.2,1.9c-0.7,0.6-1.5,1-2.2,1.3
	c-0.7,0.3-1.4,0.5-2.1,0.5c-0.5,0-0.9-0.1-1.2-0.2c-0.3-0.2-0.6-0.4-0.8-0.6c-0.2-0.3-0.3-0.6-0.4-0.9c-0.1-0.4-0.1-0.7-0.1-1.1
	c0-0.7,0.1-1.4,0.3-2.1c0.2-0.7,0.4-1.3,0.6-1.9c0.4-1.1,0.8-2.1,1.2-3.2c0.4-1,0.8-2,1.1-2.9L61.5,34c0.2-0.5,0.5-0.9,0.8-1.1
	c0.4-0.2,0.7-0.3,1.1-0.3s0.7,0.1,1,0.3s0.4,0.6,0.4,1.1c0,0.2,0,0.5-0.1,0.8c-0.1,0.3-0.2,0.6-0.4,0.9c-0.3,0.6-0.6,1.4-1,2.4
	c-0.4,0.9-0.8,1.9-1.3,3c-0.5,1.1-0.9,2.2-1.4,3.4c-0.5,1.2-0.9,2.3-1.4,3.4C58.8,49,58.3,50,57.9,51C57.5,52,57.2,52.9,56.9,53.7
	L56.9,53.7z"/>
<path class="st1" d="M81.4,49.9c0.2-0.1,0.3-0.2,0.4-0.3c0.1-0.1,0.3-0.1,0.4-0.1c0.3,0,0.4,0.1,0.6,0.3c0.1,0.2,0.2,0.5,0.2,0.8
	c0,0.4-0.1,0.7-0.2,1.1c-0.2,0.4-0.4,0.7-0.7,0.9c-1.2,1.1-2.3,2.1-3.3,3c-1,0.9-1.9,1.7-2.7,2.3c-0.9,0.6-1.7,1.1-2.5,1.5
	c-0.8,0.4-1.7,0.5-2.6,0.5c-0.9,0-1.6-0.2-2-0.6c-0.5-0.4-0.7-0.9-0.7-1.6v-0.2c0,0,0-0.1,0-0.2c0-0.4,0.2-0.9,0.5-1.4
	c0.3-0.5,0.7-1.1,1.1-1.7c0.4-0.6,0.9-1.2,1.4-1.7c0.5-0.6,1-1.1,1.4-1.7c0.4-0.5,0.8-1,1-1.4c0.3-0.4,0.4-0.8,0.4-1.1
	c0-0.2-0.1-0.3-0.2-0.4c-0.1-0.1-0.3-0.1-0.6-0.1c-0.5,0-0.9,0.1-1.4,0.4c-0.5,0.2-1,0.6-1.4,1c-0.5,0.4-0.9,0.9-1.4,1.4
	c-0.5,0.5-0.9,1.1-1.3,1.6c-0.4,0.6-0.8,1.1-1.1,1.7c-0.3,0.6-0.6,1.1-0.8,1.6c-0.1,0.2-0.2,0.4-0.3,0.6c-0.1,0.3-0.3,0.6-0.4,0.9
	c-0.2,0.3-0.3,0.7-0.5,1.1c-0.2,0.4-0.3,0.7-0.5,1c-0.1,0.3-0.3,0.6-0.4,0.9c-0.1,0.3-0.2,0.4-0.2,0.5c-0.1,0.1-0.2,0.4-0.3,0.7
	c-0.1,0.3-0.3,0.7-0.5,1.2c-0.2,0.5-0.4,0.9-0.5,1.4c-0.2,0.5-0.4,1-0.5,1.4c-0.2,0.5-0.3,0.8-0.4,1.2c-0.1,0.3-0.2,0.6-0.2,0.7
	c-0.1,0.4-0.3,0.7-0.4,1c-0.2,0.3-0.3,0.6-0.5,0.8s-0.4,0.4-0.7,0.6c-0.3,0.1-0.6,0.2-0.9,0.2c-0.4,0-0.8-0.1-1-0.3
	c-0.3-0.2-0.4-0.6-0.4-1.1c0-0.3,0-0.6,0.1-0.8c0.1-0.3,0.2-0.6,0.3-0.8c0.1-0.3,0.2-0.6,0.3-0.8c0.1-0.3,0.2-0.5,0.3-0.8
	c0.6-1.4,1.3-2.7,1.9-4.1c0.6-1.4,1.3-2.7,1.9-4.1c0.6-1.3,1.1-2.7,1.6-4c0.5-1.3,0.9-2.5,1.3-3.7c0.1-0.2,0.2-0.6,0.4-1
	c0.2-0.5,0.3-0.9,0.6-1.3c0.2-0.4,0.4-0.8,0.7-1.1c0.3-0.3,0.5-0.5,0.8-0.5c0.5,0,0.8,0.1,1,0.3s0.3,0.5,0.3,0.9c0,0.1,0,0.2,0,0.4
	c0,0.2-0.1,0.4-0.1,0.6c0,0.2-0.1,0.4-0.1,0.6c0,0.2-0.1,0.3-0.1,0.4c0.4-0.5,0.9-0.9,1.4-1.4c0.5-0.5,1-0.9,1.5-1.2
	c0.5-0.4,1.1-0.7,1.6-0.9c0.6-0.2,1.1-0.3,1.7-0.3c0.4,0,0.8,0.1,1.1,0.2c0.4,0.1,0.7,0.3,1,0.5c0.3,0.2,0.5,0.5,0.7,0.8
	c0.2,0.3,0.3,0.7,0.3,1.1c0,0.6-0.1,1.2-0.4,1.8c-0.3,0.6-0.6,1.3-1.1,1.9c-0.4,0.6-0.9,1.3-1.4,1.9c-0.5,0.6-1,1.2-1.4,1.7
	c-0.4,0.5-0.8,0.9-1.1,1.3c-0.3,0.3-0.4,0.6-0.5,0.7c0,0.2,0.1,0.3,0.2,0.4C72,57,72.2,57,72.4,57c0.2,0,0.5-0.1,0.9-0.3
	c0.4-0.2,0.9-0.6,1.6-1.1c0.7-0.5,1.6-1.3,2.6-2.2C78.5,52.5,79.8,51.3,81.4,49.9L81.4,49.9z"/>
</svg>
