<?xml version="1.0" encoding="utf-8"?>
<!-- Generator: Adobe Illustrator 21.1.0, SVG Export Plug-In . SVG Version: 6.00 Build 0)  -->
<svg version="1.1" id="Слой_1" xmlns="http://www.w3.org/2000/svg" xmlns:xlink="http://www.w3.org/1999/xlink" x="0px" y="0px"
	 viewBox="0 0 100 100" style="enable-background:new 0 0 100 100;" xml:space="preserve">
<style type="text/css">
	.st0{fill:#E44D26;}
	.st1{fill:#F16529;}
	.st2{fill:#EBEBEB;}
	.st3{fill:#FFFFFF;}
</style>
<path class="st0" d="M85.8,19.7L79.3,92l-29,8l-28.9-8l-6.4-72.3H85.8L85.8,19.7z"/>
<path class="st1" d="M50.3,93.9l23.4-6.5l5.5-61.8h-29V93.9z"/>
<path class="st2" d="M37.8,43.3h12.5v-8.9H28.1l0.2,2.4l2.2,24.4h19.8v-8.9H38.6L37.8,43.3z M39.8,65.7h-8.9l1.2,13.9l18.2,5l0,0
	v-9.2l0,0l-9.9-2.7L39.8,65.7L39.8,65.7z"/>
<path d="M21.5,0H26v4.5h4.1V0h4.5v13.5h-4.5V9H26v4.5h-4.5L21.5,0L21.5,0z M40.6,4.5h-4V0h12.4v4.5h-4v9h-4.5L40.6,4.5L40.6,4.5
	L40.6,4.5z M51,0h4.7l2.9,4.7L61.5,0h4.7v13.5h-4.5V6.8l-3.1,4.8h-0.1l-3.1-4.8v6.7H51V0z M68.5,0H73v9h6.3v4.5H68.5L68.5,0L68.5,0z
	"/>
<path class="st3" d="M50.3,61.3h10.9l-1,11.5l-9.9,2.7v9.2l18.2-5l0.1-1.5l2.1-23.3l0.2-2.4H50.3V61.3L50.3,61.3z M50.3,43.3
	L50.3,43.3l21.4,0l0.2-2l0.4-4.5l0.2-2.4H50.3V43.3L50.3,43.3z"/>
</svg>
