<?xml version="1.0" encoding="utf-8"?>
<!-- Generator: Adobe Illustrator 21.1.0, SVG Export Plug-In . SVG Version: 6.00 Build 0)  -->
<svg version="1.1" id="Слой_1" xmlns="http://www.w3.org/2000/svg" xmlns:xlink="http://www.w3.org/1999/xlink" x="0px" y="0px"
	 viewBox="0 0 100 100" style="enable-background:new 0 0 100 100;" xml:space="preserve">
<style type="text/css">
	.st0{fill:url(#SVGID_1_);}
	.st1{fill:url(#SVGID_2_);}
</style>
<linearGradient id="SVGID_1_" gradientUnits="userSpaceOnUse" x1="1.0058" y1="100.9944" x2="1.0353" y2="100.9668" gradientTransform="matrix(2341.4561 0 0 -2498.4375 -2340.4561 252344.75)">
	<stop  offset="0" style="stop-color:#000000"/>
	<stop  offset="1" style="stop-color:#FFFFFF"/>
</linearGradient>
<path class="st0" d="M49.9,73.9c21.7,29.6,42.9-8.2,42.9-31c0-26.9-27.3-41.9-42.9-41.9C24.9,1.1,1,21.8,1,50.1
	C1,81.6,28.3,99,49.9,99c-4.9-0.7-21.1-4.2-21.4-41.6c-0.1-25.3,8.3-35.4,21.3-31c0.3,0.1,14.4,5.7,14.4,23.9
	C64.3,68.3,49.9,73.9,49.9,73.9L49.9,73.9z"/>
<linearGradient id="SVGID_2_" gradientUnits="userSpaceOnUse" x1="0.8312" y1="100.9677" x2="0.7978" y2="100.9953" gradientTransform="matrix(2065.9375 0 0 -2499.9961 -1630.875 252500.6094)">
	<stop  offset="0" style="stop-color:#000000"/>
	<stop  offset="1" style="stop-color:#FFFFFF"/>
</linearGradient>
<path class="st1" d="M49.9,26.4C35.6,21.4,18,33.2,18,56.9C18,95.5,46.6,99,50.1,99C75.1,99,99,78.3,99,50
	C99,18.5,71.7,1.1,50.1,1.1c6-0.8,32.2,6.5,32.2,42.3C82.3,66.7,62.7,79.4,50,74c-0.3-0.1-14.4-5.7-14.4-23.9
	C35.6,32,49.9,26.4,49.9,26.4L49.9,26.4z"/>
</svg>
