<svg xmlns="http://www.w3.org/2000/svg" viewBox="0 0 96 96" >
  <circle cx="48" cy="48" r="46" fill="none" stroke="#fff" stroke-width="2" stroke-miterlimit="10" />
  <path d="M78.1,49c0.3-0.6,0.3-1.3,0-1.9C72.3,36.3,60.8,29,47.7,29s-24.6,7.3-30.5,18.1c-0.3,0.6-0.3,1.3,0,1.9
    c5.9,10.8,17.3,18.1,30.5,18.1S72.3,59.8,78.1,49z M47.7,62.7c-8.1,0-14.6-6.6-14.6-14.6s6.6-14.6,14.6-14.6S62.3,40,62.3,48.1
    S55.8,62.7,47.7,62.7z"/>
  <path d="M47.7,40.6c-0.6,0-1.2,0.1-1.8,0.2c0.6,0.7,0.9,1.6,0.9,2.5c0,2.1-1.7,3.9-3.9,3.9c-1,0-1.8-0.4-2.5-0.9
    c-0.1,0.6-0.2,1.2-0.2,1.8c0,4.1,3.3,7.5,7.5,7.5s7.5-3.3,7.5-7.5S51.8,40.6,47.7,40.6z"/>
</svg>
